0
SECTION
2
HEADER
9
$INSUNITS
70
4
9
$ACADVER
1
AC1014
9
$HANDSEED
5
FFFF
0
ENDSEC
0
SECTION
2
TABLES
0
TABLE
2
VPORT
5
8
100
AcDbSymbolTable
0
ENDTAB
0
TABLE
2
LTYPE
5
5
100
AcDbSymbolTable
0
LTYPE
5
14
100
AcDbSymbolTableRecord
100
AcDbLinetypeTableRecord
2
BYBLOCK
70
0
0
LTYPE
5
15
100
AcDbSymbolTableRecord
100
AcDbLinetypeTableRecord
2
BYLAYER
70
0
0
ENDTAB
0
TABLE
2
LAYER
5
2
100
AcDbSymbolTable
70
2
0
LAYER
5
50
100
AcDbSymbolTableRecord
100
AcDbLayerTableRecord
2
0
70
0
6
CONTINUOUS
0
ENDTAB
0
TABLE
2
STYLE
5
3
100
AcDbSymbolTable
70
1
0
STYLE
5
11
100
AcDbSymbolTableRecord
100
AcDbTextStyleTableRecord
2
STANDARD
70
0
0
ENDTAB
0
TABLE
2
VIEW
5
6
100
AcDbSymbolTable
70
0
0
ENDTAB
0
TABLE
2
UCS
5
7
100
AcDbSymbolTable
70
0
0
ENDTAB
0
TABLE
2
APPID
5
9
100
AcDbSymbolTable
70
2
0
APPID
5
12
100
AcDbSymbolTableRecord
100
AcDbRegAppTableRecord
2
ACAD
70
0
0
ENDTAB
0
TABLE
2
DIMSTYLE
5
A
100
AcDbSymbolTable
70
1
0
ENDTAB
0
TABLE
2
BLOCK_RECORD
5
1
100
AcDbSymbolTable
70
1
0
BLOCK_RECORD
5
1F
100
AcDbSymbolTableRecord
100
AcDbBlockTableRecord
2
*MODEL_SPACE
0
BLOCK_RECORD
5
1B
100
AcDbSymbolTableRecord
100
AcDbBlockTableRecord
2
*PAPER_SPACE
0
ENDTAB
0
ENDSEC
0
SECTION
2
BLOCKS
0
BLOCK
5
20
100
AcDbEntity
100
AcDbBlockBegin
2
*MODEL_SPACE
0
ENDBLK
5
21
100
AcDbEntity
100
AcDbBlockEnd
0
BLOCK
5
1C
100
AcDbEntity
100
AcDbBlockBegin
2
*PAPER_SPACE
0
ENDBLK
5
1D
100
AcDbEntity
100
AcDbBlockEnd
0
ENDSEC
0
SECTION
2
ENTITIES
0
CIRCLE
5
100
100
AcDbEntity
8
0
100
AcDbCircle
10
85.000005139152705
20
17.999994648420902
30
0
40
1.0500000000000043
210
-0
220
0
230
1
0
CIRCLE
5
101
100
AcDbEntity
8
0
100
AcDbCircle
10
85.000006164034545
20
8.0000184695346519
30
0
40
1.0500000000000043
210
-0
220
0
230
1
0
ARC
5
102
100
AcDbEntity
8
0
100
AcDbCircle
10
85.000006164034545
20
8.0000184695346519
30
0
40
3.000000000020433
210
-2.4651903010683471e-32
220
-2.7056981179319237e-33
230
1
100
AcDbArc
50
180.00000579057459
51
270.00000587182001
0
LINE
5
103
100
AcDbEntity
8
0
100
AcDbLine
10
85.000006471482322
20
5.0000184695346741
30
-8.1170867741191017e-33
11
126.36956215255181
21
5.0000227094755267
31
0
0
LWPOLYLINE
5
104
100
AcDbEntity
8
0
100
AcDbPolyline
90
3
43
0.0
10
129.19899728876922
20
7.002879254392149
10
128.10411539359933
20
5.5523060442539345
10
126.3695621525518
20
5.000022709475527
0
LWPOLYLINE
5
105
100
AcDbEntity
8
0
100
AcDbPolyline
90
5
43
0.0
10
129.19899728876922
20
7.002879254392143
10
129.83811502616982
20
8.112063173950425
10
130.83337407417412
20
8.917261300208686
10
132.05274591808563
20
9.310850256261904
10
133.33239979880105
20
9.239121580748515
0
LWPOLYLINE
5
106
100
AcDbEntity
8
0
100
AcDbPolyline
90
39
43
0.0
10
167.4005839946684
20
20.499994102340928
10
173.0882128449806
20
20.316408377683732
10
177.82199153874842
20
20.023396934536486
10
182.11561533757381
20
19.27465769676876
10
186.55002583112633
20
17.676696256044213
10
191.53964050118253
20
14.945167424506948
10
197.1033918039069
20
11.060585699993908
10
202.90217776320952
20
6.3144931284205725
10
208.5699834497034
20
1.1667679802173696
10
213.75154586055578
20
-3.866131804208408
10
218.05418332557366
20
-8.301839921266534
10
219.7364715352955
20
-10.175908387660536
10
221.0175170125614
20
-11.780381098038772
10
221.81208865900118
20
-13.105774288463259
10
222.03616027960084
20
-14.160085576225034
10
221.64689637135348
20
-14.963613930366305
10
220.71117652075168
20
-15.534807140841739
10
218.04781824037892
20
-15.999911282952477
10
215.7229569087633
20
-15.566532390724783
10
214.32058188372628
20
-14.234209383432269
10
213.0324033590648
20
-11.796478505356433
10
212.03410874787195
20
-10.082902202121984
10
210.66901194059724
20
-8.054724528119822
10
206.8292769183894
20
-3.332323079649646
10
201.8514336307586
20
1.6439179652649532
10
196.41102949099172
20
6.075765895789091
10
191.15311478877004
20
9.402187811824938
10
186.32117407305094
20
11.598475332248746
10
181.6449044919641
20
12.983648055401021
10
176.65039526870524
20
13.64160903920702
10
170.88773199322995
20
13.490905007182675
10
164.12549553312138
20
12.487333231315427
10
156.5302362299007
20
10.821648326784103
10
148.87588593916703
20
9.138516856934919
10
145.3882413358192
20
8.578226303264918
10
142.2586614490779
20
8.291475715316766
10
139.5173132418742
20
8.274374476712834
10
137.1484847281398
20
8.47880239148274
10
133.33239979880105
20
9.239121580748519
0
LINE
5
107
100
AcDbEntity
8
0
100
AcDbLine
10
167.40058399466844
20
20.499994102340931
30
0
11
84.500005155690161
21
20.499994651734458
31
0
0
ARC
5
108
100
AcDbEntity
8
0
100
AcDbCircle
10
84.500005139122138
20
17.99999465173449
30
0
40
2.4999999999999667
210
0
220
-0
230
1
100
AcDbArc
50
89.999999620288875
51
180.00000585317724
0
LINE
5
109
100
AcDbEntity
8
0
100
AcDbLine
10
82.00000513912218
20
17.999994395510871
30
0
11
82.000006164014124
21
8.0000181620663362
31
-7.3955709864470185e-32
0
ENDSEC
0
SECTION
2
OBJECTS
0
DICTIONARY
5
C
100
AcDbDictionary
3
ACAD_GROUP
350
D
3
ACAD_MLINESTYLE
350
17
0
DICTIONARY
5
D
100
AcDbDictionary
0
DICTIONARY
5
1A
330
C
100
AcDbDictionary
0
DICTIONARY
5
17
100
AcDbDictionary
0
ENDSEC
0
EOF
